<?xml version="1.0" standalone="no"?>
<!DOCTYPE svg PUBLIC "-//W3C//DTD SVG 20010904//EN"
 "http://www.w3.org/TR/2001/REC-SVG-20010904/DTD/svg10.dtd">
<svg version="1.0" xmlns="http://www.w3.org/2000/svg"
 width="989.000000pt" height="1280.000000pt" viewBox="0 0 989.000000 1280.000000"
 preserveAspectRatio="xMidYMid meet">
<metadata>
Created by potrace 1.15, written by Peter Selinger 2001-2017
</metadata>
<g transform="translate(0.000000,1280.000000) scale(0.100000,-0.100000)"
fill="#000000" stroke="none">
<path d="M6720 12444 c-513 -69 -974 -250 -1297 -510 -116 -93 -201 -194 -258
-306 -55 -109 -62 -153 -41 -257 l16 -80 -50 -50 c-31 -31 -64 -79 -85 -123
-30 -62 -35 -83 -35 -144 0 -39 7 -91 15 -114 8 -23 13 -46 10 -50 -9 -14 138
-161 208 -207 42 -28 74 -58 84 -78 14 -30 14 -33 -15 -81 -16 -27 -35 -66
-41 -86 -7 -21 -21 -40 -32 -43 -28 -9 -52 -50 -44 -75 4 -11 17 -32 30 -46
20 -22 23 -32 18 -78 -6 -57 2 -71 56 -106 18 -12 26 -29 32 -74 4 -32 15 -66
24 -76 16 -18 15 -22 -19 -78 -110 -177 -126 -406 -42 -595 87 -198 307 -398
586 -534 470 -229 1106 -309 1705 -213 604 96 1087 374 1263 726 44 88 64 174
63 278 -1 154 -50 289 -156 424 l-54 70 122 35 c117 35 228 62 349 87 34 7 59
17 62 27 5 11 -35 58 -135 158 l-141 142 13 43 c10 33 10 54 1 99 -16 76 -15
101 3 101 7 0 37 5 65 11 79 17 71 34 -82 185 -73 71 -173 166 -221 210 l-88
81 35 59 c45 77 76 171 83 254 5 58 2 74 -24 137 -100 237 -346 466 -678 631
-404 202 -916 298 -1305 246z"/>
<path d="M3355 12335 c-114 -36 -235 -116 -452 -300 -184 -157 -458 -370 -762
-594 -384 -284 -415 -303 -826 -509 -316 -159 -386 -201 -468 -284 -153 -156
-220 -431 -152 -633 27 -82 165 -357 215 -430 53 -77 154 -161 248 -207 72
-35 91 -48 95 -69 8 -36 92 -96 175 -125 344 -119 982 103 1642 572 514 366
928 826 1100 1224 105 241 127 414 75 584 -18 60 -31 76 -60 76 -19 0 -24 8
-34 60 -26 130 -119 260 -243 341 -35 22 -91 73 -126 112 -126 143 -218 198
-330 196 -31 -1 -75 -7 -97 -14z"/>
<path d="M3480 9053 c-58 -25 -145 -65 -195 -89 -49 -24 -103 -47 -120 -50
-16 -4 -34 -13 -40 -19 -5 -7 -55 -31 -110 -55 -55 -23 -113 -50 -130 -59 -16
-8 -37 -16 -45 -17 -30 -2 -60 -16 -55 -24 3 -4 -5 -6 -17 -3 -17 3 -19 2 -9
-5 10 -7 4 -13 -25 -22 -22 -7 -55 -21 -74 -32 l-35 -20 29 25 c16 14 43 30
60 36 27 9 28 10 4 6 -38 -7 -122 -62 -106 -68 9 -4 8 -6 -3 -6 -9 -1 -37 -12
-62 -25 -25 -14 -47 -22 -50 -20 -2 3 -20 -4 -38 -14 -19 -11 -58 -27 -87 -37
-28 -9 -50 -20 -47 -24 2 -5 -8 -13 -23 -20 -25 -11 -26 -10 -8 4 36 28 6 15
-36 -15 -22 -16 -48 -30 -57 -30 -9 0 -73 -29 -141 -64 -69 -35 -339 -161
-600 -281 -1004 -459 -1195 -547 -1210 -556 -12 -7 -11 -10 7 -15 13 -4 21
-13 20 -24 -1 -10 -4 -17 -8 -14 -10 6 -119 -48 -119 -58 0 -10 61 -80 79 -92
21 -13 264 -235 346 -315 39 -38 102 -93 140 -124 39 -30 106 -92 150 -137 68
-70 218 -186 228 -178 3 3 107 -90 282 -251 44 -41 85 -79 90 -85 6 -6 25 -23
43 -39 19 -15 31 -27 27 -27 -3 0 8 -20 25 -45 17 -25 35 -45 41 -45 5 0 37
-28 72 -61 34 -34 85 -78 112 -99 28 -20 59 -47 69 -59 11 -11 23 -21 28 -21
8 0 -75 75 -132 119 -17 13 -29 26 -26 28 7 7 176 -139 171 -148 -5 -7 25 -37
40 -39 12 -3 280 -240 280 -249 1 -8 384 -373 415 -394 14 -9 70 -62 126 -118
l101 -101 103 52 c57 29 119 62 139 74 20 13 54 29 76 36 36 12 145 77 145 87
0 5 -13 -2 -65 -37 -22 -15 -58 -33 -80 -40 -22 -7 -56 -23 -76 -36 -44 -27
-236 -124 -246 -124 -12 0 298 166 326 175 13 4 49 22 79 41 31 18 59 31 63
28 5 -3 26 4 48 16 22 11 48 20 58 21 11 0 13 2 5 6 -8 3 3 12 25 23 142 68
297 140 302 139 3 0 -65 -36 -153 -80 -87 -43 -153 -79 -147 -79 23 0 339 165
334 174 -3 5 -1 6 5 2 6 -4 28 0 48 9 20 8 48 16 63 16 25 1 25 2 -4 9 -16 4
-23 8 -14 9 9 0 29 7 45 15 63 31 133 55 139 47 7 -13 -121 -65 -137 -56 -10
6 -10 5 -1 -5 10 -11 36 -3 138 40 70 30 128 57 131 62 3 4 -20 -4 -51 -17
-31 -14 -61 -25 -67 -25 -23 0 8 17 82 44 41 16 95 37 120 47 25 11 54 21 65
24 11 2 56 17 100 34 44 16 121 42 170 56 50 15 108 33 130 40 44 15 126 39
165 49 l25 7 -25 -16 c-14 -9 -18 -14 -10 -11 85 27 205 56 236 56 16 0 36 4
43 9 20 13 -59 3 -126 -15 -28 -8 -59 -14 -70 -13 -20 1 233 67 282 73 17 3
43 9 59 16 16 6 31 8 33 6 3 -3 -14 -10 -37 -17 -24 -7 -38 -15 -32 -17 5 -1
27 4 47 12 21 9 56 17 79 17 l41 2 -40 7 c-36 6 -37 7 -10 9 17 2 37 4 45 7 8
2 35 8 60 13 25 4 59 11 75 15 23 5 25 4 10 -3 -30 -14 -8 -12 60 5 90 23 137
32 222 43 43 6 127 17 188 25 60 8 111 13 113 11 2 -2 -18 -10 -44 -19 -27 -8
-41 -15 -32 -15 10 -1 39 8 65 18 46 18 290 47 301 36 3 -3 -8 -6 -24 -6 -19
-1 -23 -3 -10 -6 10 -3 28 0 40 6 24 12 216 20 216 9 0 -5 -15 -9 -32 -9 -19
-1 -25 -3 -15 -6 10 -3 30 -2 44 2 l25 6 -26 32 c-14 18 -46 61 -71 97 -82
118 -122 170 -128 164 -3 -3 -13 9 -22 28 -10 18 -30 47 -45 63 -15 17 -38 46
-51 67 -23 35 -110 146 -184 235 -34 40 -44 60 -26 48 5 -3 41 -47 80 -98 71
-93 150 -184 135 -157 -4 8 -33 45 -63 81 -73 87 -133 165 -205 269 -32 47
-80 108 -106 135 -26 28 -82 92 -125 144 -43 51 -146 162 -229 245 -83 84
-178 185 -210 225 -33 40 -73 82 -90 94 -17 12 -58 46 -90 77 -33 30 -53 45
-45 34 8 -12 42 -45 76 -74 60 -51 78 -87 27 -53 -14 9 3 -13 38 -48 34 -36
65 -63 67 -62 2 1 -2 9 -8 17 -21 25 5 26 29 1 23 -25 22 -37 -4 -41 -13 -2
-158 136 -153 146 2 6 -73 76 -88 81 -5 2 -9 6 -8 9 16 49 33 180 33 250 0
195 -48 329 -157 435 -176 173 -303 232 -648 300 -253 50 -326 58 -439 52
l-101 -6 -145 97 c-80 53 -147 98 -150 99 -3 0 -52 -19 -110 -44z m1934 -1355
c-4 -5 -19 3 -35 18 -15 15 -26 31 -23 36 4 5 19 -3 35 -18 15 -15 26 -31 23
-36z m150 -171 c-4 -7 -3 -9 1 -4 11 10 116 -93 108 -106 -3 -6 -1 -7 5 -3 14
8 70 -48 190 -189 47 -55 105 -121 130 -147 28 -29 42 -51 37 -59 -5 -7 -4
-10 3 -5 9 6 122 -141 122 -160 0 -13 -50 39 -88 91 -19 28 -55 71 -80 97 -28
29 -42 51 -37 59 5 7 4 10 -2 6 -15 -9 -57 39 -48 54 5 7 4 10 -2 6 -12 -8
-156 150 -148 163 4 6 2 9 -2 8 -5 -2 -22 9 -39 23 -16 15 -51 46 -77 69 -28
26 -46 49 -43 57 3 8 2 12 -3 9 -12 -8 -134 122 -126 134 9 14 107 -89 99
-103z m-5304 -22 c0 -2 -20 -15 -45 -28 l-46 -23 101 -94 c56 -52 118 -111
139 -130 21 -19 84 -75 140 -124 56 -49 107 -96 114 -105 7 -9 37 -36 67 -60
30 -23 91 -77 136 -119 44 -43 107 -101 140 -131 l59 -53 -50 32 c-27 19 -102
83 -165 145 -63 61 -137 128 -165 149 -27 21 -77 66 -111 100 -33 33 -134 126
-223 206 -89 79 -168 155 -176 167 -15 22 -13 24 32 47 54 28 53 28 53 21z
m6363 -1274 c27 -46 14 -38 -18 12 -16 23 -22 37 -14 30 8 -6 22 -25 32 -42z
m-4964 -130 c33 -30 61 -59 61 -64 0 -6 -26 13 -57 42 -90 80 -103 93 -103
104 0 6 8 2 19 -9 10 -10 46 -43 80 -73z m5021 48 c15 -28 5 -23 -15 7 -9 15
-12 23 -6 20 6 -4 16 -16 21 -27z m-4240 -757 c0 -8 -58 39 -90 74 -25 26 -16
21 28 -16 34 -30 62 -56 62 -58z m195 -180 c42 -36 44 -39 10 -16 -49 34 -145
125 -145 138 0 5 19 -11 43 -35 23 -24 65 -64 92 -87z m217 -192 c5 0 6 -5 2
-11 -7 -12 -107 81 -126 116 -6 11 18 -8 52 -42 34 -35 67 -63 72 -63z"/>
<path d="M5510 7576 c0 -2 8 -10 18 -17 15 -13 16 -12 3 4 -13 16 -21 21 -21
13z"/>
<path d="M3070 8885 c-33 -19 -21 -19 21 0 19 8 27 14 19 14 -8 0 -26 -6 -40
-14z"/>
<path d="M2965 8840 c-33 -15 -55 -28 -50 -28 13 0 133 56 120 57 -5 0 -37
-13 -70 -29z"/>
<path d="M2868 8794 c-16 -8 -28 -17 -28 -19 0 -10 16 -4 40 15 30 23 25 25
-12 4z"/>
<path d="M2533 8640 c-18 -11 -33 -22 -33 -26 0 -3 15 3 33 14 17 11 39 22 47
25 13 5 13 6 0 6 -8 1 -30 -8 -47 -19z"/>
<path d="M7523 7773 c-69 -4 -73 -5 -107 -43 -42 -46 -48 -96 -18 -144 17 -28
17 -32 -1 -85 -25 -75 -47 -191 -47 -252 0 -35 5 -54 20 -69 35 -35 35 -66 -3
-264 -112 -584 -180 -1145 -207 -1715 -9 -193 -30 -395 -46 -445 -4 -11 -22
-41 -41 -67 -49 -69 -241 -468 -270 -563 l-25 -81 -13 -1220 c-8 -671 -14
-1407 -15 -1635 -1 -388 0 -420 19 -493 28 -106 74 -189 150 -269 188 -200
492 -300 870 -285 485 19 785 183 871 477 19 67 20 80 50 940 13 355 37 1456
46 2045 7 521 10 497 -73 695 -50 117 -88 190 -174 331 -97 159 -99 168 -105
504 -8 538 -40 994 -120 1705 -33 295 -33 293 -5 331 21 28 23 38 17 98 -4 37
-15 113 -25 170 -17 92 -17 106 -4 119 37 37 38 88 2 148 -17 28 -26 32 -91
43 -173 26 -412 35 -655 24z"/>
<path d="M1100 6593 c5 -12 33 -41 61 -65 100 -84 208 -184 254 -236 26 -29
62 -59 79 -68 l31 -14 -25 17 c-14 10 -70 63 -125 118 -55 56 -122 118 -150
140 -27 22 -69 60 -93 85 -24 25 -38 35 -32 23z"/>
<path d="M6404 6545 c8 -17 24 -39 36 -50 13 -11 31 -33 41 -50 11 -16 19 -25
19 -18 0 7 -19 34 -42 61 -24 27 -49 57 -56 68 -7 11 -6 6 2 -11z"/>
<path d="M6310 6090 l-85 -6 80 -1 c44 -1 89 2 100 7 11 5 13 8 5 7 -8 0 -53
-4 -100 -7z"/>
<path d="M6527 6093 c18 -2 50 -2 70 0 21 2 7 4 -32 4 -38 0 -55 -2 -38 -4z"/>
<path d="M5993 6053 c15 -2 39 -2 55 0 15 2 2 4 -28 4 -30 0 -43 -2 -27 -4z"/>
<path d="M5873 6043 c15 -2 39 -2 55 0 15 2 2 4 -28 4 -30 0 -43 -2 -27 -4z"/>
<path d="M5808 6033 c6 -2 18 -2 25 0 6 3 1 5 -13 5 -14 0 -19 -2 -12 -5z"/>
<path d="M5530 5984 c-22 -8 -28 -13 -15 -13 11 0 31 6 45 14 31 17 17 17 -30
-1z"/>
<path d="M5220 5920 c-11 -7 -5 -8 20 -4 43 8 51 14 19 14 -13 0 -31 -5 -39
-10z"/>
<path d="M1930 5831 c0 -5 37 -40 81 -78 45 -37 105 -89 134 -115 28 -27 55
-48 60 -48 9 0 -83 83 -133 121 -21 15 -61 50 -89 78 -29 28 -53 47 -53 42z"/>
<path d="M4827 5815 c-21 -8 -74 -24 -118 -36 -44 -12 -78 -23 -75 -26 4 -4
190 47 236 66 38 15 0 12 -43 -4z"/>
<path d="M4560 5729 c-25 -11 -67 -25 -95 -31 -27 -5 -61 -17 -75 -26 -13 -8
-49 -23 -80 -33 -36 -12 -43 -17 -20 -13 19 3 58 16 85 30 28 13 70 28 95 33
44 10 165 60 145 60 -5 0 -30 -9 -55 -20z"/>
<path d="M4228 5613 c7 -3 16 -2 19 1 4 3 -2 6 -13 5 -11 0 -14 -3 -6 -6z"/>
<path d="M2807 4735 l-38 -45 -2 -235 c-1 -129 -5 -235 -9 -235 -5 0 -8 9 -8
20 0 18 -7 20 -83 20 l-83 0 -54 108 c-52 104 -137 266 -153 289 -5 8 -23 5
-62 -13 -106 -46 -129 -66 -148 -127 l-17 -55 30 -63 c26 -56 30 -74 28 -144
-1 -64 -2 -69 -5 -26 l-4 53 -95 -4 c-93 -4 -94 -4 -133 -42 -37 -36 -39 -40
-45 -124 -9 -101 -8 -379 0 -502 l6 -85 -101 -133 c-108 -143 -119 -159 -131
-203 -5 -17 10 -268 40 -651 27 -343 74 -956 105 -1363 31 -407 58 -754 60
-771 l5 -31 138 -22 c365 -58 569 -74 942 -74 373 0 623 20 985 80 128 21 169
32 208 55 28 16 77 43 111 60 33 17 62 32 64 33 4 4 12 81 97 920 36 358 79
781 95 940 78 758 90 882 90 913 0 36 -77 145 -221 311 l-71 83 31 216 c17
119 34 229 37 244 5 25 2 27 -48 38 -123 26 -139 25 -190 -14 -37 -29 -47 -43
-53 -76 -6 -38 -9 -40 -41 -40 -23 0 -34 5 -34 14 0 8 31 62 70 120 l69 106
-52 38 c-28 21 -62 44 -74 51 -16 8 -23 21 -23 40 0 15 -3 49 -6 75 l-7 46
-91 0 -92 0 -42 -43 -42 -43 0 -147 c0 -81 -3 -147 -7 -147 -5 0 -45 17 -90
37 -82 37 -83 37 -83 74 0 36 -1 38 -37 41 l-38 3 -5 125 -5 125 -94 3 -94 3
-44 -43 -43 -42 0 -88 0 -88 -55 0 c-42 0 -55 3 -55 15 0 9 -9 15 -24 15 -24
0 -24 2 -30 118 -4 64 -9 165 -12 225 l-6 107 -97 0 -97 0 -37 -45z"/>
</g>
</svg>
