<?xml version="1.0" standalone="no"?>
<!DOCTYPE svg PUBLIC "-//W3C//DTD SVG 20010904//EN"
 "http://www.w3.org/TR/2001/REC-SVG-20010904/DTD/svg10.dtd">
<svg version="1.0" xmlns="http://www.w3.org/2000/svg"
 width="1280.000000pt" height="1280.000000pt" viewBox="0 0 1280.000000 1280.000000"
 preserveAspectRatio="xMidYMid meet">
<metadata>
Created by potrace 1.15, written by Peter Selinger 2001-2017
</metadata>
<g transform="translate(0.000000,1280.000000) scale(0.100000,-0.100000)"
fill="#000000" stroke="none">
<path d="M5301 11530 c-87 -18 -183 -88 -232 -167 -14 -22 -28 -33 -44 -33
-40 0 -167 -48 -211 -79 l-41 -30 -19 21 c-32 35 -118 86 -185 108 -89 30
-222 30 -300 1 -83 -31 -145 -77 -200 -145 -67 -83 -109 -171 -122 -255 l-11
-70 -116 2 c-112 2 -117 1 -182 -31 -50 -24 -84 -52 -133 -105 -86 -94 -126
-175 -133 -266 -5 -69 -5 -69 -37 -75 -162 -31 -349 -248 -362 -421 -5 -55 -8
-65 -22 -60 -40 16 -131 27 -179 22 -127 -13 -261 -114 -323 -244 -29 -59 -34
-81 -37 -164 l-4 -95 -72 -12 c-123 -21 -243 -109 -303 -223 -26 -51 -28 -60
-26 -161 2 -60 3 -126 4 -148 0 -22 -1 -75 -2 -117 -2 -76 9 -118 43 -165 10
-14 6 -21 -22 -45 -59 -50 -82 -77 -107 -131 -23 -48 -25 -64 -21 -145 4 -103
31 -175 87 -239 l32 -36 -35 -54 c-44 -70 -66 -145 -66 -230 0 -113 60 -227
162 -306 57 -44 58 -46 51 -81 -14 -63 -5 -171 16 -212 19 -36 19 -40 4 -85
-23 -69 -13 -157 27 -233 30 -56 108 -142 138 -152 9 -3 6 -20 -12 -64 -32
-80 -40 -149 -26 -224 6 -35 9 -65 7 -67 -2 -3 -44 -11 -93 -20 -100 -17 -153
-44 -207 -103 -95 -106 -134 -281 -88 -401 l19 -51 -69 -35 c-91 -45 -138 -89
-180 -166 -32 -58 -34 -70 -34 -153 0 -84 3 -95 38 -163 20 -41 37 -88 37
-105 0 -38 46 -139 84 -184 l27 -33 -25 -33 c-80 -105 -76 -261 9 -377 23 -31
89 -83 116 -92 6 -2 4 -21 -6 -48 -73 -207 34 -413 242 -469 l43 -12 -6 -43
c-5 -35 -1 -56 20 -101 14 -31 37 -66 51 -77 23 -18 25 -26 25 -92 0 -84 30
-157 83 -202 42 -36 121 -71 177 -79 l45 -7 0 -116 c0 -116 0 -117 38 -189 80
-149 238 -259 389 -270 47 -3 95 0 135 10 l63 14 30 -48 c33 -50 108 -113 175
-147 90 -45 218 -51 316 -16 53 18 49 19 49 -16 0 -92 92 -220 196 -270 65
-32 169 -34 233 -4 l45 20 79 -41 c76 -39 83 -40 176 -40 84 0 103 3 156 28
37 17 78 48 107 79 45 49 48 50 79 39 52 -18 152 -13 215 10 77 29 145 96 173
172 11 32 21 70 21 85 0 26 3 28 34 24 19 -2 51 1 71 8 48 16 133 91 168 149
26 43 28 51 24 136 -4 83 -2 93 20 123 31 41 53 94 53 126 0 21 12 30 74 60
118 57 196 171 196 289 0 59 0 59 28 53 15 -3 77 -13 137 -21 664 -96 1122
-182 1420 -267 310 -88 719 -290 1095 -541 260 -174 397 -280 800 -617 428
-358 669 -581 817 -757 24 -29 67 -63 105 -84 59 -32 69 -34 153 -34 140 1
245 48 394 175 241 208 371 452 385 728 3 56 -5 128 -28 262 l-31 185 -70 6
c-299 28 -742 290 -1280 758 -340 295 -568 528 -673 685 -190 285 -484 973
-702 1641 -64 197 -130 436 -130 473 0 13 15 42 34 63 18 22 41 64 50 93 l17
54 66 16 66 17 29 -36 c16 -19 50 -47 76 -62 40 -24 58 -28 122 -28 64 1 83 5
128 29 58 32 105 94 123 161 6 22 13 45 15 52 2 8 20 10 56 6 39 -4 70 1 117
17 118 39 188 105 253 237 26 54 31 74 31 142 l0 79 36 6 c20 3 52 6 72 6 60
0 169 62 235 132 87 95 129 203 122 320 l-3 53 46 16 c140 49 268 181 331 338
19 48 22 75 22 186 0 120 -2 135 -28 197 l-28 68 20 32 c53 88 71 226 43 335
-7 29 -31 82 -52 118 l-40 66 26 55 c69 145 55 333 -37 506 -37 70 -126 156
-197 193 -42 21 -157 54 -192 55 -4 0 -10 48 -14 107 -6 94 -12 117 -40 173
-74 147 -190 229 -355 252 -111 15 -260 84 -260 121 0 42 -51 126 -108 178
-74 68 -148 101 -236 108 l-69 6 -4 50 c-12 158 -98 278 -232 323 -81 28 -221
7 -295 -43 l-37 -25 -64 50 c-72 54 -126 81 -200 99 -54 12 -132 -1 -198 -35
-29 -16 -32 -16 -42 1 -40 68 -80 106 -142 137 -65 32 -73 33 -183 33 -102 0
-121 -3 -170 -25 l-54 -26 -49 33 c-27 18 -67 38 -90 44 -50 14 -147 17 -199
6 l-38 -8 0 34 c0 120 -118 244 -270 283 -117 30 -207 5 -300 -82 -39 -36 -49
-42 -59 -30 -6 7 -39 26 -74 42 -56 26 -72 29 -168 29 -100 0 -108 -2 -168
-33 l-64 -33 -39 31 c-70 57 -141 82 -237 86 -47 2 -106 -1 -130 -6z m2858
-6503 c28 -82 51 -154 51 -160 0 -15 -108 91 -181 178 l-59 70 58 52 c68 61
57 73 131 -140z m-263 -129 c18 -53 40 -129 49 -170 18 -80 33 -383 19 -377
-5 2 -26 15 -46 29 -34 23 -44 43 -123 240 -47 118 -85 219 -85 224 0 5 19 26
43 47 24 20 54 54 68 73 13 20 28 34 33 33 6 -2 24 -47 42 -99z m-343 -147 c9
-31 19 -65 22 -76 4 -11 -28 16 -69 59 -42 44 -76 82 -76 86 0 3 24 1 54 -4
l54 -10 15 -55z m-139 -622 c87 -154 157 -282 154 -284 -10 -11 -137 29 -211
66 -89 44 -242 133 -269 157 -16 14 -14 19 39 76 65 70 99 138 109 213 3 29 9
53 13 53 3 0 77 -127 165 -281z"/>
</g>
</svg>
