<?xml version="1.0" standalone="no"?>
<!DOCTYPE svg PUBLIC "-//W3C//DTD SVG 20010904//EN"
 "http://www.w3.org/TR/2001/REC-SVG-20010904/DTD/svg10.dtd">
<svg version="1.0" xmlns="http://www.w3.org/2000/svg"
 width="295.000000pt" height="237.000000pt" viewBox="0 0 295.000000 237.000000"
 preserveAspectRatio="xMidYMid meet">

<g transform="translate(0.000000,237.000000) scale(0.100000,-0.100000)"
fill="#000000" stroke="none">
<path d="M1330 1845 c0 -362 2 -415 15 -415 13 0 15 53 15 415 0 362 -2 415
-15 415 -13 0 -15 -53 -15 -415z"/>
<path d="M694 1963 c-29 -69 -204 -522 -204 -528 0 -4 10 -5 22 -3 18 2 30 23
63 110 23 59 44 110 47 113 3 3 22 -41 42 -97 20 -57 41 -109 45 -116 6 -9 57
-12 212 -10 l205 3 -109 280 -108 280 -101 0 -101 0 -13 -32z"/>
<path d="M1610 1978 c0 -13 11 -20 41 -24 89 -15 98 -43 99 -326 l0 -198 195
0 195 0 0 230 c0 151 4 238 11 254 24 52 132 58 189 10 16 -14 39 -51 52 -82
20 -52 22 -74 23 -235 l0 -177 184 2 183 3 21 50 c31 77 29 193 -5 266 -35 76
-95 134 -182 175 -122 58 -183 65 -619 67 -362 2 -387 1 -387 -15z"/>
<path d="M817 1343 c-11 -10 -8 -113 3 -113 6 0 10 9 10 20 0 27 27 26 51 -2
10 -13 18 -18 19 -11 0 6 -4 15 -10 18 -6 4 -4 15 6 30 14 22 14 25 -5 44 -20
20 -61 28 -74 14z m68 -38 c0 -14 -8 -21 -27 -23 -24 -3 -28 0 -28 23 0 23 4
26 28 23 19 -2 27 -9 27 -23z"/>
<path d="M957 1343 c-4 -3 -7 -30 -7 -60 l0 -53 48 2 c43 1 44 2 10 5 -29 3
-38 9 -38 23 0 13 9 20 28 23 l27 4 -27 2 c-21 1 -28 6 -28 21 0 16 7 20 30
20 17 0 30 5 30 10 0 11 -63 14 -73 3z"/>
<path d="M1093 1343 c-7 -2 -13 -15 -13 -28 0 -18 8 -26 36 -35 45 -15 39 -35
-11 -34 -24 1 -32 -2 -24 -7 31 -20 79 -3 79 27 0 7 -16 18 -35 24 -53 17 -47
46 9 40 11 -1 15 3 12 9 -7 11 -32 13 -53 4z"/>
<path d="M1190 1340 c0 -5 9 -10 19 -10 17 0 21 -8 24 -52 l3 -53 2 53 c2 45
5 52 22 52 11 0 20 5 20 10 0 6 -20 10 -45 10 -25 0 -45 -4 -45 -10z"/>
<path d="M1331 1292 c-17 -34 -27 -62 -22 -62 5 0 11 7 15 15 8 21 65 19 83
-2 11 -15 11 -13 0 18 -8 19 -21 48 -30 64 l-15 29 -31 -62z m47 3 c11 -23 10
-25 -14 -25 -20 0 -25 4 -20 16 3 9 6 20 6 25 0 18 17 8 28 -16z"/>
<path d="M1462 1305 c-2 -55 10 -75 43 -75 33 0 45 20 43 75 l-1 50 -6 -49
c-11 -89 -67 -87 -74 2 l-3 47 -2 -50z"/>
<path d="M1611 1288 c0 -48 2 -58 9 -40 5 12 15 22 22 22 6 0 23 -10 36 -22
l25 -23 -12 22 c-7 14 -8 24 -1 28 5 3 10 17 10 30 0 27 -26 45 -64 45 -25 0
-26 -2 -25 -62z m74 17 c0 -15 -8 -21 -32 -23 -30 -3 -33 -1 -33 23 0 24 3 26
33 23 24 -2 32 -8 32 -23z"/>
<path d="M1761 1292 c-17 -34 -27 -62 -22 -62 5 0 11 7 15 15 8 21 65 19 83
-2 11 -15 11 -13 0 18 -8 19 -21 48 -30 64 l-15 29 -31 -62z m47 3 c11 -23 10
-25 -14 -25 -20 0 -25 4 -20 16 3 9 6 20 6 25 0 18 17 8 28 -16z"/>
<path d="M1892 1290 c1 -58 2 -60 5 -16 l4 49 29 -34 c16 -19 29 -29 29 -24 0
6 -15 28 -34 50 l-35 40 2 -65z"/>
<path d="M2030 1340 c0 -5 9 -10 19 -10 17 0 21 -8 24 -52 l3 -53 2 53 c2 45
5 52 22 52 11 0 20 5 20 10 0 6 -20 10 -45 10 -25 0 -45 -4 -45 -10z"/>
<path d="M1969 1300 c-1 -22 -2 -45 -3 -52 -1 -6 5 -13 12 -15 9 -4 12 11 12
51 0 63 -19 78 -21 16z"/>
<path d="M361 1108 c-5 -13 -30 -77 -56 -143 -26 -66 -58 -142 -73 -168 -28
-52 -93 -117 -117 -117 -8 0 -15 -9 -15 -19 0 -19 9 -20 200 -20 186 -1 200 0
200 17 0 14 -13 21 -58 30 -88 18 -107 43 -106 140 0 61 8 99 37 184 20 58 37
109 37 112 0 17 -42 3 -49 -16z"/>
<path d="M866 1003 c78 -217 88 -252 76 -278 -11 -24 -62 -45 -109 -45 -17 0
-23 -6 -23 -21 0 -21 2 -21 183 -19 100 2 217 3 260 2 l77 -2 0 -251 c0 -196
3 -250 13 -247 9 4 13 65 15 251 l2 247 65 0 c77 0 84 14 28 51 -23 15 -48 45
-65 78 -27 52 -28 58 -28 207 0 129 -2 154 -15 154 -11 0 -15 -20 -17 -102
l-3 -103 -40 103 -40 102 -212 0 -213 0 46 -127z"/>
<path d="M1748 938 c-2 -125 -8 -201 -16 -214 -12 -23 -60 -44 -98 -44 -17 0
-24 -6 -24 -20 0 -19 10 -19 370 -19 358 0 370 0 370 19 0 20 -11 23 -109 34
-30 3 -53 13 -70 30 -26 26 -26 27 -29 216 l-3 190 -194 0 -193 0 -4 -192z"/>
</g>
</svg>
